<svg width="60" height="60" viewBox="0 0 60 60" fill="none" xmlns="http://www.w3.org/2000/svg">
<path d="M55.0425 14.5844L52.5 12.8696V3.75849C52.5 3.0686 51.94 2.50868 51.25 2.50868C50.56 2.50868 50 3.0686 50 3.75849V11.1824L36.2925 1.93377C32.47 -0.64584 27.5275 -0.64334 23.71 1.93377L4.9575 14.5844C1.8525 16.6765 0 20.1635 0 23.9079V48.7517C0 54.9533 5.0475 60 11.25 60H18.75C19.44 60 20 59.4401 20 58.7502V36.2536C20 34.1864 21.6825 32.5042 23.75 32.5042H36.25C38.3175 32.5042 40 34.1864 40 36.2536V58.7502C40 59.4401 40.56 60 41.25 60H48.75C54.9525 60 60 54.9533 60 48.7517V23.9079C60 20.161 58.1475 16.6765 55.0425 14.5844ZM57.5 48.7517C57.5 53.576 53.575 57.5004 48.75 57.5004H42.5V36.2536C42.5 32.8091 39.6975 30.0045 36.25 30.0045H23.75C20.3025 30.0045 17.5 32.8091 17.5 36.2536V57.5004H11.25C6.425 57.5004 2.5 53.576 2.5 48.7517V23.9079C2.5 20.9934 3.94 18.2838 6.355 16.6565L25.105 4.00596C28.0775 1.99876 31.9225 1.99876 34.895 4.00596L53.645 16.6565C56.06 18.2838 57.5 20.9959 57.5 23.9079V48.7517Z" fill="black"/>
</svg>
