<svg width="60" height="60" viewBox="0 0 60 60" fill="none" xmlns="http://www.w3.org/2000/svg">
<path d="M35 2.5V0C48.785 0 60 11.215 60 25H57.5C57.5 12.595 47.405 2.5 35 2.5ZM47.5 25H50C50 16.7275 43.2725 10 35 10V12.5C41.8925 12.5 47.5 18.1075 47.5 25ZM43.8175 34.5925L58.015 48.79L50.8175 55.9875C48.235 58.575 44.7375 60 40.965 60C22.9725 60 0 37.03 0 19.0325C0 15.26 1.425 11.7625 4.0125 9.18L11.21 1.9825L25.4075 16.18L16.975 24.6125C20.74 33.51 26.7725 39.5475 35.375 43.035L43.8175 34.5925ZM54.48 48.79L43.8175 38.1275L35.9925 45.955L35.235 45.665C25.435 41.925 18.405 34.9 14.3425 24.785L14.035 24.0175L21.8725 16.18L11.21 5.5175L5.78 10.9475C3.665 13.0575 2.5 15.93 2.5 19.0325C2.5 35.57 24.43 57.5 40.9675 57.5C44.07 57.5 46.94 56.335 49.05 54.22L54.48 48.79Z" fill="black"/>
</svg>
