<svg width="60" height="60" viewBox="0 0 60 60" fill="none" xmlns="http://www.w3.org/2000/svg">
<path d="M23.84 36.404L17.1175 43.3418C16.635 43.8368 15.845 43.8493 15.35 43.3693C14.855 42.8893 14.8425 42.0968 15.32 41.6017L21.7175 35.0015H1.25C0.56 35.0015 0 34.4415 0 33.7514C0 33.0614 0.56 32.5014 1.25 32.5014H21.7175L15.32 25.9011C14.8425 25.4061 14.8525 24.6136 15.35 24.1335C15.8475 23.6535 16.6375 23.6685 17.1175 24.161L23.855 31.1138C24.5475 31.8064 24.94 32.7489 24.94 33.7514C24.94 34.754 24.5475 35.6965 23.84 36.404ZM40 27.5012C38.62 27.5012 37.5 28.6212 37.5 30.0013C37.5 31.3813 38.62 32.5014 40 32.5014C41.38 32.5014 42.5 31.3813 42.5 30.0013C42.5 28.6212 41.38 27.5012 40 27.5012ZM60 13.3006V51.2496C60 56.0748 56.075 60 51.25 60H28.75C23.925 60 20 56.0748 20 51.2496V46.2494C20 45.5594 20.56 44.9994 21.25 44.9994C21.94 44.9994 22.5 45.5594 22.5 46.2494V51.2496C22.5 54.6948 25.3025 57.4999 28.75 57.4999H30V8.75292C30 8.3254 30.08 7.91538 30.14 7.50037H28.75C25.3025 7.50037 22.5 10.3055 22.5 13.7506V18.7508C22.5 19.4409 21.94 20.0009 21.25 20.0009C20.56 20.0009 20 19.4409 20 18.7508V13.7506C20 8.92542 23.925 5.00027 28.75 5.00027H30.8425C31.39 3.85022 32.1875 2.81768 33.2025 1.98514C35.2375 0.315075 37.89 -0.342452 40.4625 0.170069L50.9525 2.26765C56.195 3.3152 60 7.95539 60 13.3006ZM57.5 13.3006C57.5 9.14293 54.54 5.53529 50.4675 4.72025L39.9775 2.62267C38.1275 2.25015 36.2425 2.72767 34.79 3.91772C33.3375 5.11027 32.5025 6.87284 32.5025 8.75292V57.5024H51.2525C54.7 57.5024 57.5025 54.6973 57.5025 51.2521L57.5 13.3006Z" fill="black"/>
</svg>
