<svg width="60" height="60" viewBox="0 0 60 60" fill="none" xmlns="http://www.w3.org/2000/svg">
<path d="M12.7124 23.0565L27.7153 0.557477C28.0978 -0.0174993 28.873 -0.172493 29.4481 0.209991C30.0232 0.592475 30.1782 1.36744 29.7956 1.94242L14.7928 24.4415C14.5528 24.804 14.1552 24.999 13.7501 24.999C13.5126 24.999 13.2725 24.9315 13.0575 24.789C12.4824 24.4065 12.3298 23.6315 12.7124 23.0565ZM28.7554 14.9994C31.5135 14.9994 33.7564 17.2418 33.7564 19.9992C33.7564 22.7566 31.5135 24.999 28.7554 24.999C25.9974 24.999 23.7545 22.7566 23.7545 19.9992C23.7545 17.2418 25.9974 14.9994 28.7554 14.9994ZM28.7554 17.4993C27.3777 17.4993 26.255 18.6217 26.255 19.9992C26.255 21.3766 27.3777 22.4991 28.7554 22.4991C30.1332 22.4991 31.2559 21.3766 31.2559 19.9992C31.2559 18.6217 30.1332 17.4993 28.7554 17.4993ZM8.75166 4.99979C8.75166 2.24241 10.9946 0 13.7526 0C16.5106 0 18.7536 2.24241 18.7536 4.99979C18.7536 7.75718 16.5106 9.99958 13.7526 9.99958C10.9946 9.99958 8.75166 7.75718 8.75166 4.99979ZM11.2521 4.99979C11.2521 6.37723 12.3748 7.49969 13.7526 7.49969C15.1304 7.49969 16.2531 6.37723 16.2531 4.99979C16.2531 3.62235 15.1304 2.4999 13.7526 2.4999C12.3748 2.4999 11.2521 3.62235 11.2521 4.99979ZM58.4211 32.9511L41.4028 52.0478C36.8995 57.1001 30.4333 60 23.667 60H8.75166C3.92574 60 0 56.0752 0 51.2504V38.7509C0 33.9261 3.92574 30.0013 8.75166 30.0013H33.4013C36.4219 30.0013 38.9749 32.0362 39.7575 34.806L49.0893 24.5515C50.217 23.3115 51.7623 22.5841 53.4376 22.5066C55.1029 22.4416 56.7182 23.009 57.961 24.1365C60.489 26.4414 60.694 30.3962 58.4211 32.9511ZM56.2782 25.9839C55.533 25.3039 54.5553 24.969 53.5576 25.0015C52.55 25.049 51.6198 25.4864 50.9397 26.2314L39.7 38.5809C38.9474 40.9433 36.8895 42.7757 34.334 43.1407L18.9011 44.9881C18.1934 45.0731 17.5933 44.5781 17.5108 43.8957C17.4283 43.2107 17.9184 42.5882 18.6035 42.5057L34.0089 40.6633C35.9893 40.3808 37.5071 38.6334 37.5071 36.6035C37.5071 34.3411 35.6643 32.4986 33.4013 32.4986H8.75166C5.30601 32.4986 2.50047 35.3035 2.50047 38.7484V51.2479C2.50047 54.6927 5.30601 57.4976 8.75166 57.4976H23.667C29.7231 57.4976 35.5067 54.9052 39.535 50.3829L56.5532 31.2862C57.9235 29.7488 57.7985 27.3689 56.2782 25.9814V25.9839Z" fill="black"/>
</svg>
