<svg width="60" height="60" viewBox="0 0 60 60" fill="none" xmlns="http://www.w3.org/2000/svg">
<path d="M48.75 10H37.5V7.5C37.5 3.365 34.135 0 30 0C25.865 0 22.5 3.365 22.5 7.5V10H11.25C5.0475 10 0 15.0475 0 21.25V48.75C0 54.9525 5.0475 60 11.25 60H48.75C54.9525 60 60 54.9525 60 48.75V21.25C60 15.0475 54.9525 10 48.75 10ZM25 7.5C25 4.7425 27.2425 2.5 30 2.5C32.7575 2.5 35 4.7425 35 7.5V16.25C35 16.9375 34.44 17.5 33.75 17.5H26.25C25.56 17.5 25 16.9375 25 16.25V7.5ZM57.5 48.75C57.5 53.575 53.575 57.5 48.75 57.5H11.25C6.425 57.5 2.5 53.575 2.5 48.75V21.25C2.5 16.425 6.425 12.5 11.25 12.5H22.5V16.25C22.5 18.3175 24.1825 20 26.25 20H33.75C35.8175 20 37.5 18.3175 37.5 16.25V12.5H48.75C53.575 12.5 57.5 16.425 57.5 21.25V48.75ZM30 40C34.135 40 37.5 36.635 37.5 32.5C37.5 28.365 34.135 25 30 25C25.865 25 22.5 28.365 22.5 32.5C22.5 36.635 25.865 40 30 40ZM30 27.5C32.7575 27.5 35 29.7425 35 32.5C35 35.2575 32.7575 37.5 30 37.5C27.2425 37.5 25 35.2575 25 32.5C25 29.7425 27.2425 27.5 30 27.5ZM42.4625 52.2C42.6275 52.87 42.22 53.5475 41.55 53.7125C41.4475 53.7375 41.3475 53.75 41.2475 53.75C40.6875 53.75 40.1775 53.37 40.035 52.8C38.9125 48.28 34.6925 45 29.9975 45C25.3025 45 21.0825 48.28 19.96 52.8C19.7925 53.47 19.1125 53.8725 18.445 53.7125C17.775 53.5475 17.3675 52.8675 17.5325 52.2C18.9275 46.58 24.17 42.5 29.995 42.5C35.82 42.5 41.0625 46.58 42.4575 52.2H42.4625Z" fill="black"/>
</svg>
